# xmcd CD database file
#
# Track frame offsets:
#	150
#	14644
#	30530
#	47147
#	61609
#	77404
#	94974
#	114042
#	128729
#	145906
#	156879
#	170739
#	183145
#	198615
#	212203
#	238170
#
# Disc length: 4590 seconds
#
# Revision: 1
# Processed by: cddbd v1.5.2PL0 Copyright (c) Steve Scherf et al.
# Submitted via: CDex 1.70beta2
#
DISCID=d711ec10
DTITLE=The Bosshoss - Stallion Battalion
DYEAR=2007
DGENRE=Country
TTITLE0=Stallion Battalion
TTITLE1=Monkey Business
TTITLE2=Shake And Shout
TTITLE3=José And Myling
TTITLE4=Free Love On Free Love Free Way
TTITLE5=Polk Salade Annie
TTITLE6=Omniscient Lover
TTITLE7=Everything Counts
TTITLE8=Goodbye Marie
TTITLE9=Bay Bar
TTITLE10=Truck'N'Roll Rules
TTITLE11=High
TTITLE12=Drop It Like It´s Hot
TTITLE13=Jumpin´ Around
TTITLE14=Good Cooking
TTITLE15=Hey Ya - Bonus Live Video
EXTD=YEAR: 2007
EXTT0=
EXTT1=
EXTT2=
EXTT3=
EXTT4=
EXTT5=
EXTT6=
EXTT7=
EXTT8=
EXTT9=
EXTT10=
EXTT11=
EXTT12=
EXTT13=
EXTT14=
EXTT15=
PLAYORDER=
